<svg width="31" height="30" viewBox="0 0 31 30" fill="none" xmlns="http://www.w3.org/2000/svg">
<path fill-rule="evenodd" clip-rule="evenodd" d="M7.18277 0.978993C5.94296 1.09437 4.77926 1.49584 3.79996 2.14608C3.29725 2.47984 2.31502 3.46959 1.96369 3.99637C0.770827 5.78511 0.325329 8.06029 0.757039 10.1591C1.09793 11.8161 1.85075 13.1426 3.27478 14.5955C4.59884 15.9464 5.58007 16.6652 8.70091 18.5703C11.95 20.5538 13.0238 21.294 14.0028 22.2253L14.4915 22.6903L14.2337 23.01C13.8666 23.4652 13.1432 24.5498 12.9549 24.9273C12.2639 26.3131 12.2716 27.9506 12.9725 28.6381C13.9783 29.6246 15.4303 29.1006 16.7302 27.2822C17.579 26.0947 17.7929 24.7675 17.3308 23.5546C17.2471 23.335 17.1656 23.1152 17.1497 23.066C17.103 22.9227 18.1548 22.0439 21.1468 19.7264C24.5087 17.1223 26.0335 15.8074 27.2725 14.4436C28.0835 13.5509 28.3575 13.2085 28.8365 12.4889C29.6443 11.2754 30.2191 9.95929 30.4864 8.71129C30.6524 7.93642 30.6261 6.64477 30.4293 5.90932C30.1433 4.84034 29.6264 3.93703 28.8855 3.2114C27.63 1.98182 25.8909 1.32867 23.875 1.32954C22.3392 1.33024 21.0521 1.67318 19.809 2.41293C18.7551 3.0401 17.5407 4.16459 16.7734 5.22379C16.5766 5.49553 16.4073 5.71786 16.3971 5.71786C16.387 5.71786 16.1894 5.47518 15.9581 5.17863C13.766 2.36876 10.2631 0.692321 7.18277 0.978993ZM8.46141 3.0165C9.8439 3.14641 10.9615 3.54457 12.1699 4.33774C13.2667 5.05773 14.1367 5.94634 14.8583 7.08379C15.6006 8.25384 16.0743 8.71129 16.5438 8.71129C16.9051 8.71129 17.1104 8.51738 17.4978 7.81035C18.3693 6.21965 19.2938 5.15503 20.472 4.38529C22.1249 3.30544 24.1621 3.00755 25.7998 3.60624C26.6644 3.92232 27.6498 4.72404 28.0922 5.47129C29.248 7.42376 28.6224 9.85949 26.267 12.5766C25.514 13.4453 23.7994 15.0938 22.7304 15.977C22.2466 16.3766 20.9551 17.3967 19.8604 18.2438C18.7657 19.0909 17.4671 20.115 16.9745 20.5195C16.482 20.9239 16.049 21.2732 16.0122 21.2958C15.9728 21.3199 15.7362 21.1363 15.4364 20.8489C14.2133 19.6764 12.8593 18.7148 10.087 17.0498C7.2818 15.365 6.21743 14.6201 5.11334 13.5686C3.15269 11.7016 2.40309 9.81897 2.69674 7.49915C3.0097 5.02646 4.82473 3.25499 7.28708 3.019C7.5524 2.99354 7.78269 2.96925 7.79882 2.96489C7.81496 2.96059 8.11313 2.98378 8.46141 3.0165ZM15.4516 25.4117C15.3199 25.813 14.8205 26.6137 14.7018 26.6137C14.6473 26.6137 14.7365 26.1902 14.8788 25.7733C14.9547 25.5509 15.1287 25.1849 15.2655 24.9601L15.5142 24.5514L15.5323 24.8309C15.5422 24.985 15.506 25.2456 15.4516 25.4117Z" fill="#FF7DAC"/>
</svg>
