<svg width="1167" height="596" viewBox="0 0 1167 596" fill="none" xmlns="http://www.w3.org/2000/svg">
<path d="M1078.14 321.257C1096.53 268.851 1135.06 204.223 1109.48 164.174C1049.15 69.6969 837.518 114.257 832.222 52.6942C830.997 39.0871 838.854 23.8741 858.848 6.84679C893.038 -22.2553 977.083 64.818 910.886 102.329C832.173 146.988 412.915 66.522 412.915 66.522C412.915 66.522 218.701 35.054 104.769 104.524C-9.16293 173.994 81.6737 254.251 119.97 214.104C127.558 206.148 146.179 154.208 79.8227 168.539C46.6507 175.673 15.3666 206.945 4.97129 243.378C-22.6229 340 103.617 447.521 75.7038 477.984C70.9229 483.206 63.6407 484.39 58.3204 484.525" stroke="#010101" stroke-width="1.5" stroke-miterlimit="10"/>
<path d="M37.2049 478.249L16.4336 492.783C16.2783 492.891 16.2404 493.105 16.3491 493.261L24.663 505.143C24.7717 505.298 24.9857 505.336 25.141 505.227L45.9123 490.694C46.0676 490.585 46.1055 490.371 45.9968 490.216L37.6829 478.334C37.5742 478.178 37.3602 478.141 37.2049 478.249Z" stroke="#010101" stroke-width="1.5" stroke-miterlimit="10"/>
<path d="M99.7127 567.928L78.9414 582.461C78.7861 582.57 78.7483 582.784 78.8569 582.939L87.1708 594.822C87.2795 594.977 87.4935 595.015 87.6488 594.906L108.42 580.373C108.575 580.264 108.613 580.05 108.505 579.895L100.191 568.012C100.082 567.857 99.868 567.819 99.7127 567.928Z" stroke="#010101" stroke-width="1.5" stroke-miterlimit="10"/>
<path d="M63.0607 490.597L19.1777 521.301C19.0224 521.41 18.9846 521.624 19.0933 521.779L19.3252 522.111C19.4339 522.266 19.6479 522.304 19.8032 522.195L63.6861 491.491C63.8415 491.382 63.8793 491.168 63.7706 491.013L63.5387 490.681C63.43 490.526 63.216 490.488 63.0607 490.597Z" stroke="#010101" stroke-width="1.5" stroke-miterlimit="10"/>
<path d="M68.4903 498.384L24.6074 529.088C24.4521 529.197 24.4143 529.411 24.5229 529.566L24.7549 529.898C24.8636 530.053 25.0776 530.091 25.2329 529.982L69.1158 499.278C69.2711 499.169 69.309 498.955 69.2003 498.8L68.9684 498.468C68.8597 498.313 68.6457 498.275 68.4903 498.384Z" stroke="#010101" stroke-width="1.5" stroke-miterlimit="10"/>
<path d="M73.9542 506.159L30.0713 536.864C29.916 536.972 29.8781 537.186 29.9868 537.342L30.2187 537.673C30.3274 537.829 30.5414 537.866 30.6968 537.758L74.5797 507.053C74.735 506.945 74.7728 506.731 74.6642 506.575L74.4322 506.244C74.3235 506.089 74.1095 506.051 73.9542 506.159Z" stroke="#010101" stroke-width="1.5" stroke-miterlimit="10"/>
<path d="M79.3839 513.948L35.501 544.652C35.3456 544.761 35.3078 544.975 35.4165 545.13L35.6484 545.461C35.7571 545.617 35.9711 545.654 36.1264 545.546L80.0094 514.841C80.1647 514.733 80.2025 514.519 80.0938 514.363L79.8619 514.032C79.7532 513.877 79.5392 513.839 79.3839 513.948Z" stroke="#010101" stroke-width="1.5" stroke-miterlimit="10"/>
<path d="M84.6505 521.299L40.6705 551.87C40.5149 551.979 40.4763 552.192 40.5843 552.348L40.8149 552.68C40.9229 552.835 41.1367 552.873 41.2924 552.765L85.2723 522.194C85.428 522.085 85.4666 521.872 85.3586 521.716L85.128 521.385C85.0199 521.229 84.8061 521.191 84.6505 521.299Z" stroke="#010101" stroke-width="1.49797" stroke-miterlimit="10"/>
<path d="M90.2638 529.49L46.3808 560.195C46.2255 560.304 46.1877 560.518 46.2964 560.673L46.5283 561.004C46.637 561.16 46.851 561.197 47.0063 561.089L90.8893 530.384C91.0446 530.276 91.0824 530.062 90.9737 529.906L90.7418 529.575C90.6331 529.42 90.4191 529.382 90.2638 529.49Z" stroke="#010101" stroke-width="1.5" stroke-miterlimit="10"/>
<path d="M95.7052 537.271L51.8223 567.975C51.6669 568.084 51.6291 568.298 51.7378 568.453L51.9697 568.785C52.0784 568.94 52.2924 568.978 52.4477 568.869L96.3306 538.165C96.486 538.056 96.5238 537.842 96.4151 537.687L96.1832 537.355C96.0745 537.2 95.8605 537.162 95.7052 537.271Z" stroke="#010101" stroke-width="1.5" stroke-miterlimit="10"/>
<path d="M101.152 545.054L57.2695 575.758C57.1142 575.867 57.0764 576.081 57.1851 576.236L57.417 576.568C57.5256 576.723 57.7397 576.761 57.895 576.652L101.778 545.948C101.933 545.839 101.971 545.625 101.862 545.47L101.63 545.138C101.522 544.983 101.308 544.945 101.152 545.054Z" stroke="#010101" stroke-width="1.5" stroke-miterlimit="10"/>
<path d="M106.597 552.825L62.7139 583.53C62.5585 583.638 62.5207 583.852 62.6294 584.008L62.8613 584.339C62.97 584.495 63.184 584.532 63.3393 584.424L107.222 553.719C107.378 553.611 107.415 553.397 107.307 553.241L107.075 552.91C106.966 552.755 106.752 552.717 106.597 552.825Z" stroke="#010101" stroke-width="1.5" stroke-miterlimit="10"/>
<path d="M53.9113 485.093L17.1396 510.821C15.0206 512.304 14.5047 515.224 15.9873 517.343L64.732 587.009C66.2146 589.128 69.1344 589.644 71.2535 588.161L108.025 562.433C110.144 560.95 110.66 558.03 109.177 555.911L60.4328 486.245C58.9501 484.126 56.0303 483.61 53.9113 485.093Z" stroke="#010101" stroke-width="1.5" stroke-miterlimit="10"/>
<path d="M1016.31 400.461C1016.31 400.461 1073.8 322.337 1078.14 321.258C1082.48 320.179 1154.08 331.065 1154.08 331.065L1092.24 413.529L1016.24 402.349C1016.24 402.349 999.956 412.438 1019.48 423.287L1100.89 436.269L1166 352.714L1157.35 331.065" stroke="#010101" stroke-width="1.5" stroke-miterlimit="10" stroke-linecap="round"/>
<path d="M1092.78 412.755L1100.92 436.267" stroke="#010101" stroke-width="1.5" stroke-miterlimit="10" stroke-linecap="round"/>
<path d="M1098.75 416.727L1154.09 346.203" stroke="#010101" stroke-width="1.5" stroke-miterlimit="10" stroke-linecap="round"/>
<path d="M1101.15 423.629L1158.21 352.528" stroke="#010101" stroke-width="1.5" stroke-miterlimit="10" stroke-linecap="round"/>
<path d="M1014.83 408.881L1090.07 419.987" stroke="#010101" stroke-width="1.5" stroke-miterlimit="10" stroke-linecap="round"/>
<path d="M1015.44 415.477L1090.07 426.497" stroke="#010101" stroke-width="1.5" stroke-miterlimit="10" stroke-linecap="round"/>
<path d="M1024.98 402.631L1075.97 335.355" stroke="#010101" stroke-width="1.5" stroke-miterlimit="10" stroke-linecap="round"/>
<path d="M1086.45 322.212L1081.02 329.8" stroke="#010101" stroke-width="1.5" stroke-miterlimit="10" stroke-linecap="round"/>
<path d="M1102.98 353.325L1102.56 353.251C1102.34 353.251 1102.18 353.104 1102.16 353.19C1102.13 353.276 1102 353.19 1101.83 353.19C1101.69 353.143 1101.54 353.118 1101.4 353.116C1101.37 353.137 1101.33 353.148 1101.29 353.148C1101.25 353.148 1101.21 353.137 1101.18 353.116H1101.09C1101.09 353.116 1100.92 353.116 1100.88 353.116C1100.85 353.116 1100.8 353.116 1100.69 353.116C1100.58 353.116 1100.48 353.116 1100.45 353.116V353.128C1100.25 353.104 1100.05 353.104 1099.84 353.128C1099.65 353.178 1099.45 353.178 1099.27 353.128V353.214C1099.13 353.24 1099 353.277 1098.87 353.325C1098.7 353.398 1098.57 353.435 1098.57 353.41C1098.57 353.386 1098.44 353.41 1098.27 353.496C1098.15 353.542 1098.04 353.609 1097.94 353.692C1097.83 353.771 1097.71 353.83 1097.59 353.864C1097.47 353.883 1097.37 353.93 1097.28 353.999C1097.14 354.124 1096.99 354.239 1096.83 354.342C1096.24 354.757 1095.71 355.239 1095.23 355.776C1095.17 355.886 1095.09 355.982 1094.99 356.058C1094.85 356.212 1094.73 356.38 1094.63 356.561C1094.53 356.76 1094.39 356.942 1094.23 357.1C1093.81 357.82 1093.48 358.585 1093.23 359.38C1093.23 359.613 1093.1 359.785 1093.07 359.748C1093.05 359.711 1093.01 359.748 1092.98 359.809C1092.94 359.871 1092.84 359.895 1092.29 359.564C1091.94 359.37 1091.61 359.148 1091.3 358.902L1090.62 358.412C1090.48 358.302 1090.38 358.204 1090.4 358.179C1090.43 358.155 1090.4 358.106 1090.19 358.044C1089.99 357.983 1089.92 357.897 1089.92 357.836C1089.86 357.724 1089.76 357.64 1089.64 357.603C1089.5 357.603 1089.4 357.431 1089.41 357.407C1089.42 357.382 1089.29 357.235 1089.12 357.113C1088.94 356.99 1088.78 356.843 1088.78 356.794C1088.78 356.745 1088.72 356.659 1088.61 356.61C1088.5 356.561 1088.43 356.475 1088.45 356.451C1088.48 356.426 1088.37 356.291 1088.22 356.193C1088.1 356.124 1088.01 356.022 1087.95 355.899C1087.95 355.838 1087.95 355.789 1087.95 355.776C1087.95 355.764 1087.53 355.47 1087.6 355.421C1087.66 355.372 1087.6 355.421 1087.5 355.335C1087.4 355.249 1087.36 355.335 1087.5 355.237C1087.63 355.139 1087.57 355.163 1087.5 355.176C1087.42 355.188 1087.3 355.065 1087.18 354.906C1086.59 354.158 1086.27 353.68 1086.39 353.68H1086.19C1086.14 353.658 1086.09 353.624 1086.06 353.581C1086.03 353.538 1086.01 353.488 1086 353.435C1086 353.288 1085.92 353.227 1085.92 353.251C1085.79 353.134 1085.69 352.997 1085.61 352.847C1085.45 352.589 1085.35 352.381 1085.39 352.356C1085.43 352.332 1085.39 352.356 1085.32 352.356C1085.24 352.356 1085.2 352.356 1085.23 352.27C1085.25 352.252 1085.26 352.228 1085.26 352.203C1085.26 352.178 1085.25 352.154 1085.23 352.136C1085.22 352.128 1085.21 352.118 1085.21 352.107C1085.21 352.097 1085.2 352.086 1085.2 352.074C1085.2 352.063 1085.21 352.052 1085.21 352.041C1085.21 352.03 1085.22 352.021 1085.23 352.013C1085.23 352.013 1085.23 351.903 1085.11 351.817C1084.98 351.731 1084.97 351.657 1085 351.608C1085 351.597 1085.01 351.583 1085.01 351.57C1085.01 351.557 1085 351.544 1085 351.532C1084.99 351.52 1084.98 351.51 1084.97 351.502C1084.96 351.494 1084.95 351.488 1084.93 351.486C1084.86 351.486 1084.84 351.4 1084.86 351.375C1084.84 351.258 1084.79 351.147 1084.71 351.057C1084.63 350.91 1084.57 350.763 1084.59 350.726C1084.62 350.689 1084.59 350.64 1084.52 350.603C1084.48 350.582 1084.46 350.551 1084.44 350.514C1084.42 350.477 1084.41 350.435 1084.42 350.395C1084.43 350.36 1084.42 350.325 1084.41 350.292C1084.4 350.26 1084.38 350.231 1084.35 350.211C1084.35 350.211 1083.98 349.524 1084.05 349.488C1083.92 349.313 1083.82 349.113 1083.76 348.899C1083.45 348.09 1083.43 348.004 1083.45 347.82C1083.46 347.782 1083.46 347.743 1083.44 347.706C1083.43 347.67 1083.41 347.637 1083.38 347.612C1083.07 346.846 1082.86 346.042 1082.77 345.222C1082.77 345.16 1082.77 345.111 1082.77 345.136C1082.77 345.16 1082.69 345.136 1082.77 345.136C1082.78 345.118 1082.79 345.093 1082.79 345.068C1082.79 345.043 1082.78 345.019 1082.77 345.001C1082.14 345.428 1081.6 345.964 1081.17 346.582C1080.62 347.391 1080.15 348.254 1079.77 349.157L1079.71 349.549C1079.43 350.536 1079.3 351.562 1079.33 352.589C1079.35 352.707 1079.35 352.826 1079.33 352.945C1079.33 353.205 1079.37 353.464 1079.43 353.717C1079.46 353.8 1079.46 353.891 1079.43 353.974V354.097C1079.55 354.311 1079.64 354.542 1079.69 354.783C1079.75 355.012 1079.82 355.237 1079.91 355.458C1079.98 355.578 1080.04 355.705 1080.08 355.838C1080.17 356.058 1080.2 356.23 1080.01 356.291C1079.81 356.352 1079.84 356.291 1079.8 356.291C1079.67 356.144 1079.51 356.03 1079.33 355.96C1079.1 355.838 1078.93 355.727 1078.97 355.691C1079 355.654 1078.9 355.617 1078.77 355.556C1078.63 355.494 1078.55 355.458 1078.61 355.409C1078.67 355.36 1078.61 355.311 1078.45 355.237C1078.29 355.163 1078.23 355.078 1078.25 355.029C1078.28 354.98 1078.25 354.967 1078.14 354.955C1078.03 354.943 1078.03 354.955 1078.08 354.894C1078.13 354.832 1078.08 354.796 1077.95 354.734C1077.81 354.673 1077.75 354.575 1077.76 354.514C1077.78 354.452 1077.76 354.379 1077.64 354.354C1077.61 354.331 1077.58 354.3 1077.56 354.264C1077.54 354.228 1077.52 354.188 1077.52 354.146C1077.52 354.146 1077.52 354.023 1077.52 354.036C1077.19 354.579 1076.96 355.183 1076.87 355.813C1076.83 356.046 1076.76 356.273 1076.66 356.487C1076.65 356.501 1076.64 356.518 1076.64 356.536C1076.64 356.554 1076.65 356.572 1076.66 356.585C1076.69 356.929 1076.64 357.275 1076.5 357.591C1076.5 357.591 1076.6 357.909 1076.5 358.032C1076.5 358.032 1076.62 358.596 1076.5 358.657C1076.51 358.815 1076.54 358.972 1076.59 359.123C1076.63 359.278 1076.65 359.439 1076.65 359.601C1076.65 359.756 1076.68 359.911 1076.73 360.055C1076.8 360.251 1076.86 360.41 1076.87 360.386L1077 360.79C1077.03 360.941 1077.09 361.086 1077.16 361.219C1077.23 361.306 1077.27 361.401 1077.31 361.501C1077.33 361.626 1077.38 361.747 1077.44 361.857C1077.59 362.004 1077.78 362.359 1077.74 362.421C1077.7 362.482 1077.74 362.494 1077.74 362.494C1077.74 362.494 1078.02 362.666 1077.95 362.715C1077.87 362.764 1077.95 362.776 1078.02 362.715C1078.09 362.653 1078.13 362.715 1078.08 362.788C1078.03 362.862 1078.08 362.862 1078.08 362.874C1078.08 362.886 1078.21 362.874 1078.08 362.874C1077.96 362.874 1078.01 362.948 1078.08 362.935C1078.5 363.221 1078.86 363.573 1079.16 363.977C1079.16 364.174 1078.89 364.21 1078.52 364.063C1078.16 363.916 1078.17 363.941 1078.17 364.063C1077.58 363.905 1077.02 363.657 1076.5 363.328C1076.36 363.21 1076.19 363.126 1076.01 363.082C1075.97 363.547 1075.97 364.015 1076.01 364.48C1076.04 364.639 1076.01 364.802 1075.94 364.946C1075.94 364.946 1076.02 364.946 1076.01 365.007C1076.01 365.259 1076.04 365.509 1076.1 365.755C1076.17 366.11 1076.24 366.539 1076.28 366.711C1076.32 366.883 1076.28 366.981 1076.28 366.956C1076.42 367.21 1076.53 367.482 1076.6 367.765C1076.66 367.949 1076.68 368.047 1076.68 367.961C1076.68 367.876 1076.68 367.876 1076.78 367.961C1076.88 368.047 1076.78 368.158 1076.78 368.182C1076.78 368.207 1076.78 368.182 1076.78 368.182C1076.78 368.182 1076.99 368.366 1077.16 368.623C1077.79 369.595 1078.63 370.412 1079.61 371.014C1079.68 371.025 1079.73 371.053 1079.78 371.094C1079.82 371.135 1079.86 371.188 1079.87 371.247C1079.87 371.247 1079.52 371.553 1079.47 371.455C1079.42 371.357 1079.47 371.455 1079.41 371.455C1079.05 371.627 1078.66 371.711 1078.27 371.7H1078.19C1077.87 371.835 1077.52 371.898 1077.16 371.884C1077.12 371.866 1077.06 371.866 1077.02 371.884C1076.77 371.939 1076.51 371.939 1076.26 371.884H1076.12C1076.08 371.908 1076.04 371.921 1076 371.921C1075.95 371.921 1075.91 371.908 1075.88 371.884C1075.88 371.884 1075.51 371.946 1075.45 371.823C1075.39 371.7 1075.36 371.823 1075.36 371.823C1075.24 371.861 1075.11 371.861 1074.99 371.823C1074.9 371.767 1074.78 371.745 1074.67 371.762H1074.45C1074.36 371.725 1074.26 371.725 1074.17 371.762H1073.94C1073.85 371.762 1073.78 371.676 1073.76 371.762C1073.73 371.847 1073.76 371.762 1073.63 371.762H1073.38C1072.7 371.661 1072.03 371.492 1071.39 371.259C1070.79 371.041 1070.2 370.788 1069.64 370.499C1069.3 370.324 1068.96 370.169 1068.61 370.033C1068.68 370.033 1068.69 370.144 1068.68 370.193C1068.67 370.242 1068.68 370.278 1068.68 370.315C1068.69 370.318 1068.71 370.323 1068.72 370.331C1068.73 370.339 1068.74 370.349 1068.74 370.36C1068.75 370.372 1068.75 370.385 1068.76 370.398C1068.76 370.411 1068.76 370.425 1068.75 370.438V370.291C1068.75 370.291 1069.05 370.573 1069.02 370.695C1069 370.818 1069.02 370.818 1069.1 370.818C1069.17 370.818 1069.59 371.369 1069.54 371.48C1069.49 371.59 1069.54 371.48 1069.54 371.48C1069.54 371.48 1070.14 372.154 1070.05 372.191C1069.97 372.227 1070.05 372.191 1070.11 372.191C1070.16 372.193 1070.19 372.208 1070.23 372.235C1070.26 372.261 1070.28 372.298 1070.29 372.338C1070.32 372.417 1070.37 372.491 1070.42 372.558C1070.42 372.558 1070.87 373 1071.29 373.466C1071.7 374.091 1072.17 374.671 1072.7 375.194C1072.8 375.194 1072.86 375.329 1072.85 375.366C1072.84 375.402 1072.96 375.525 1073.15 375.611C1073.35 375.697 1073.47 375.807 1073.38 375.819C1073.28 375.832 1073.38 375.893 1073.55 375.942C1073.72 375.991 1073.84 376.064 1073.82 376.126C1073.81 376.141 1073.81 376.158 1073.81 376.175C1073.81 376.192 1073.81 376.208 1073.82 376.224C1074.24 376.382 1074.64 376.615 1074.98 376.91C1076.09 377.584 1077.24 378.194 1078.41 378.737C1078.42 378.722 1078.43 378.705 1078.43 378.688C1078.43 378.671 1078.42 378.654 1078.41 378.639C1078.61 378.673 1078.79 378.735 1078.97 378.823L1079.59 379.141H1079.73C1079.73 379.143 1079.74 379.143 1079.75 379.141C1079.76 379.139 1079.77 379.135 1079.78 379.129C1079.79 379.123 1079.8 379.116 1079.8 379.107C1079.81 379.099 1079.81 379.09 1079.81 379.08C1079.81 379.019 1079.93 379.08 1080.15 379.203C1080.37 379.325 1080.44 379.374 1080.39 379.203C1080.34 379.031 1080.39 379.117 1080.61 379.203C1080.74 379.277 1080.89 379.323 1081.04 379.337C1081.25 379.35 1081.46 379.383 1081.66 379.436C1081.98 379.512 1082.3 379.566 1082.62 379.595C1082.85 379.607 1083.08 379.644 1083.3 379.705H1083.49C1083.64 379.685 1083.79 379.685 1083.94 379.705C1084.35 379.75 1084.76 379.771 1085.17 379.767C1085.43 379.757 1085.69 379.799 1085.94 379.889C1085.94 379.889 1086.17 379.767 1086.23 379.889C1086.3 380.012 1086.23 379.889 1086.31 379.889C1086.38 379.889 1086.87 379.767 1086.93 379.889C1086.93 379.889 1086.93 379.791 1086.99 379.889C1087.01 379.907 1087.04 379.917 1087.07 379.917C1087.1 379.917 1087.12 379.907 1087.14 379.889C1087.17 379.865 1087.21 379.852 1087.25 379.852C1087.29 379.852 1087.33 379.865 1087.36 379.889H1087.53C1087.61 379.875 1087.68 379.875 1087.75 379.889C1087.86 379.889 1087.96 379.889 1087.99 379.889C1088.01 379.889 1088.07 379.889 1088.16 379.889C1088.24 379.889 1088.29 379.889 1088.28 379.889C1088.27 379.889 1088.92 379.705 1088.97 379.803V379.718C1089.26 379.685 1089.55 379.628 1089.84 379.546C1090.11 379.453 1090.39 379.407 1090.67 379.411C1090.72 379.372 1090.78 379.344 1090.84 379.33C1090.9 379.315 1090.97 379.313 1091.03 379.325C1091.05 379.327 1091.08 379.321 1091.1 379.308C1091.12 379.295 1091.14 379.275 1091.15 379.252C1091.15 379.252 1091.3 379.141 1091.43 379.117C1092.46 378.767 1093.48 378.358 1094.46 377.891C1094.59 377.793 1094.72 377.756 1094.74 377.781C1094.77 377.805 1094.8 377.781 1094.84 377.781C1094.88 377.781 1094.91 377.683 1094.95 377.695C1094.99 377.707 1095.05 377.695 1095.12 377.585C1095.2 377.474 1095.26 377.486 1095.28 377.585C1095.31 377.683 1095.35 377.585 1095.39 377.585C1095.46 377.488 1095.56 377.415 1095.67 377.376C1095.83 377.302 1095.97 377.212 1096.1 377.106C1096.2 377.033 1096.31 376.996 1096.35 377.045C1096.38 377.094 1096.35 377.045 1096.35 377.045C1096.94 376.531 1097.58 376.071 1098.26 375.672C1098.34 375.615 1098.4 375.544 1098.46 375.464C1098.54 375.366 1098.64 375.28 1098.68 375.304C1098.71 375.329 1098.76 375.304 1098.81 375.182C1098.86 375.059 1098.91 375.059 1098.93 375.096C1098.96 375.133 1099.02 375.096 1099.07 374.986C1099.12 374.875 1099.19 374.826 1099.22 374.863C1099.24 374.9 1099.22 374.863 1099.22 374.79C1099.22 374.716 1099.22 374.667 1099.34 374.704C1099.46 374.74 1099.44 374.704 1099.45 374.618C1099.46 374.532 1099.45 374.508 1099.55 374.532C1099.65 374.557 1099.62 374.532 1099.62 374.532C1099.62 374.532 1099.93 374.115 1100.01 374.152H1100.09C1100.09 373.98 1100.25 373.821 1100.28 373.882C1100.32 373.944 1100.28 373.882 1100.36 373.882C1100.58 373.617 1100.82 373.363 1101.07 373.122C1102.43 371.755 1103.62 370.233 1104.62 368.587C1104.72 368.415 1104.82 368.256 1104.88 368.256C1105.07 368.009 1105.22 367.742 1105.35 367.459C1105.59 366.944 1105.69 366.772 1105.64 366.969C1105.59 367.165 1105.82 366.687 1106.15 365.976C1106.71 364.75 1106.78 364.688 1106.95 364.627C1107.64 364.382 1108.02 364.284 1108.09 364.37C1108.09 364.37 1108.09 364.284 1108.2 364.37C1108.31 364.455 1108.32 364.37 1108.31 364.37C1108.71 364.147 1109.12 363.954 1109.54 363.794C1110.86 363.217 1111.01 363.132 1111.05 363.07C1111.09 363.023 1111.15 362.985 1111.21 362.96C1111.67 362.727 1111.74 362.653 1111.49 362.666C1111.45 362.684 1111.41 362.694 1111.37 362.694C1111.33 362.694 1111.29 362.684 1111.25 362.666H1111.18C1111.18 362.666 1110.6 362.666 1110.54 362.568C1110.48 362.47 1110.54 362.506 1110.54 362.568C1110.18 362.6 1109.8 362.541 1109.46 362.396C1108.94 362.388 1108.42 362.284 1107.93 362.09C1107.61 362.09 1107.61 362.09 1107.74 361.795C1107.86 361.501 1107.91 361.599 1107.98 361.648C1108.05 361.697 1108.09 361.648 1108.08 361.648C1108.07 361.648 1108.08 361.562 1108.23 361.575C1108.29 361.592 1108.36 361.592 1108.42 361.575C1108.76 361.453 1109.12 361.367 1109.48 361.317C1109.84 361.044 1110.26 360.848 1110.7 360.741C1110.8 360.619 1110.91 360.512 1111.03 360.422C1111.48 360.12 1111.89 359.766 1112.26 359.368C1111.95 359.344 1111.63 359.344 1111.32 359.368C1110.98 359.429 1110.64 359.429 1110.31 359.368H1110.24C1110.24 359.368 1110.24 359.454 1110.15 359.368C1110.07 359.282 1110.07 359.282 1110.07 359.368C1109.19 359.395 1108.32 359.292 1107.48 359.062C1107.38 358.956 1107.32 358.824 1107.29 358.682C1107.28 358.559 1107.23 358.442 1107.16 358.338C1107.03 358.12 1106.95 357.871 1106.94 357.615C1106.94 357.615 1106.56 357.1 1106.63 357.051C1106.71 357.002 1106.63 356.99 1106.63 356.99C1106.63 356.99 1106.33 356.72 1106.41 356.659C1106.5 356.598 1106.41 356.659 1106.41 356.659C1106.28 356.573 1106.16 356.455 1106.08 356.316C1105.99 356.168 1105.89 356.032 1105.76 355.911C1105.76 355.911 1105.69 355.85 1105.76 355.838C1105.84 355.825 1105.76 355.752 1105.62 355.666C1105.47 355.58 1105.42 355.507 1105.42 355.458C1105.42 355.409 1105.42 355.372 1105.28 355.36C1105.15 355.347 1105.15 355.36 1105.17 355.249C1105.2 355.139 1105.06 355.102 1104.84 354.98C1104.62 354.857 1104.49 354.759 1104.51 354.722C1104.24 354.469 1103.92 354.273 1103.57 354.146C1103.41 353.847 1103.21 353.571 1102.98 353.325Z" fill="#02A9F4" stroke="#010101" stroke-miterlimit="10"/>
</svg>
