<svg width="32" height="32" viewBox="0 0 32 32" fill="none" xmlns="http://www.w3.org/2000/svg">
<path fill-rule="evenodd" clip-rule="evenodd" d="M0.499943 0.115875C0.273568 0.236375 0.00519264 0.627062 5.14187e-06 0.84375C-0.00161986 0.9125 0.38213 3.25331 0.852755 6.0455L1.70844 11.1223L1.36126 11.858C-1.35825 17.6201 0.15038 24.5758 5.00094 28.6395C10.3873 33.1522 18.0517 33.1051 23.3697 28.5266C23.7616 28.1892 24.3508 27.6093 24.6791 27.2379L25.2761 26.5625H26.5161C28.2318 26.5625 28.8468 26.4271 29.7822 25.8433C30.2924 25.5247 30.9584 24.8661 31.2701 24.3717C32.1456 22.9833 32.2389 21.2886 31.5213 19.8125C31.2797 19.3158 31.1446 19.1309 30.6949 18.6816C30.2608 18.2479 30.0488 18.0906 29.5947 17.8649C29.2853 17.7112 28.8585 17.5487 28.6462 17.5039L28.2602 17.4224L28.2193 16.9456C27.9612 13.9365 26.9978 11.4433 25.1974 9.125C24.7043 8.49 23.6504 7.42094 23.0009 6.89687C20.1513 4.59737 16.3772 3.45644 12.8086 3.81556L12.157 3.88112L6.63069 1.94056C3.59119 0.87325 1.01738 0 0.911068 0C0.804755 0 0.619755 0.052125 0.499943 0.115875ZM17.1874 0.115875C16.928 0.253938 16.6909 0.638625 16.6894 0.923875C16.686 1.62013 17.5837 2.59681 18.4823 2.87431C19.0177 3.03969 19.5906 3.04013 19.8609 2.87531C20.3026 2.60606 20.4469 2.02712 20.1728 1.62437C19.9619 1.31444 19.7617 1.19831 19.3188 1.12894C18.8714 1.05887 18.6409 0.891562 18.4319 0.485188C18.2102 0.0541875 17.6281 -0.118562 17.1874 0.115875ZM30.611 0.128875C30.3471 0.268188 30.1259 0.636937 30.1259 0.9375C30.1259 1.24762 30.347 1.60769 30.6243 1.74919C30.9367 1.90856 31.1902 1.90856 31.5026 1.74919C31.7799 1.60769 32.0009 1.24762 32.0009 0.9375C32.0009 0.627375 31.7799 0.267312 31.5026 0.125813C31.1946 -0.03125 30.9126 -0.0303125 30.611 0.128875ZM3.71376 2.90581C4.53551 3.19744 5.21876 3.447 5.23213 3.46038C5.25838 3.48662 4.94751 3.76063 3.59713 4.90156C2.84682 5.5355 2.71807 5.6225 2.67838 5.52256C2.65301 5.45856 2.53032 4.77344 2.40582 4C2.28126 3.22656 2.16544 2.5445 2.14844 2.48438C2.13144 2.42425 2.14051 2.37513 2.16863 2.37525C2.19669 2.37544 2.89201 2.61413 3.71376 2.90581ZM25.4848 3.014C25.2373 3.15744 25.0009 3.54756 25.0009 3.8125C25.0009 4.26581 25.4913 4.75119 25.9469 4.749C26.4675 4.74644 26.9039 4.26444 26.8585 3.74237C26.7975 3.04194 26.0868 2.66512 25.4848 3.014ZM8.868 4.71763L10.1413 5.16756L6.88351 7.91194C5.09169 9.42131 3.60394 10.6635 3.57732 10.6724C3.50594 10.6962 3.04088 7.80319 3.10876 7.75731C3.14013 7.73612 3.68169 7.28281 4.31219 6.75C7.35419 4.1795 7.34032 4.19056 7.46969 4.22981C7.53844 4.25069 8.16769 4.47019 8.868 4.71763ZM15.3224 5.6905C17.2601 5.8865 19.1843 6.56125 20.7721 7.60156C23.9554 9.68706 25.9483 12.9849 26.3196 16.7812C26.4342 17.9534 26.3211 19.6073 26.0537 20.6692L25.9861 20.9375H21.4646H16.9431L16.698 20.5781C16.1362 19.7542 15.6756 19.375 15.2368 19.375C14.6238 19.375 14.1532 20.0703 14.3736 20.6502C14.4068 20.7374 14.5831 20.9712 14.7655 21.1699C15.1764 21.6175 15.3428 21.884 15.5042 22.3531C15.9154 23.5476 15.6049 24.7872 14.6592 25.7268C14.1175 26.265 13.9972 26.5323 14.1168 26.9317C14.2067 27.2316 14.5461 27.5419 14.8461 27.5981C15.2021 27.6649 15.5428 27.4931 16.0319 27.0002L16.4663 26.5625H19.5896H22.7129L22.4976 26.7876C21.8402 27.4748 20.6789 28.2828 19.5322 28.851C16.1457 30.5288 12.1905 30.54 8.78675 28.8813C7.51788 28.2629 6.60369 27.6157 5.57113 26.6049C4.13926 25.2032 3.12963 23.5933 2.50688 21.7188C1.68388 19.2416 1.67251 16.6598 2.47344 14.1304L2.68657 13.4574L3.07813 13.1527C3.29351 12.9851 5.47182 11.2503 7.91882 9.29769L12.368 5.74744L12.8251 5.69431C13.4903 5.61706 14.5799 5.61537 15.3224 5.6905ZM16.3143 7.70469C15.6699 8.04544 15.6436 8.92569 16.266 9.31656C16.5318 9.48344 17.023 9.45681 17.2987 9.2605C17.5441 9.08575 17.7184 8.64819 17.6622 8.34831C17.5861 7.94306 17.1354 7.5625 16.7315 7.5625C16.6499 7.5625 16.4621 7.6265 16.3143 7.70469ZM29.7646 8.29144C29.0948 8.62156 29.0983 9.63575 29.7703 9.94081C30.107 10.0937 30.2749 10.0922 30.6024 9.93375C30.7956 9.84025 30.9037 9.73212 30.9972 9.539C31.1618 9.19906 31.1594 9.02919 30.9853 8.68975C30.7506 8.232 30.2299 8.06212 29.7646 8.29144ZM7.82694 12.7512C6.70938 13.0439 5.67901 13.8777 5.19651 14.8796C4.91526 15.4636 4.86913 15.8097 5.03094 16.1226C5.30007 16.643 5.98613 16.7773 6.43713 16.3978C6.53782 16.313 6.72001 16.0363 6.84188 15.7829C7.09332 15.2602 7.40707 14.949 7.93844 14.6953C8.23088 14.5557 8.36638 14.5312 8.846 14.5312C9.35725 14.5312 9.44876 14.5504 9.82775 14.737C10.3184 14.9786 10.6309 15.3091 10.8809 15.8512C11.2278 16.6034 11.8254 16.8295 12.3948 16.4241C12.8211 16.1205 12.8533 15.6267 12.4949 14.8864C12.1606 14.1957 11.4386 13.4498 10.7697 13.1041C9.85869 12.6332 8.77382 12.5031 7.82694 12.7512ZM18.3894 12.7512C17.2723 13.0439 16.2464 13.8752 15.7586 14.8831C15.3893 15.6461 15.4209 16.1134 15.8632 16.4284C16.4303 16.8322 17.0291 16.5988 17.3732 15.8398C17.5943 15.3521 18.0175 14.919 18.4887 14.6981C18.792 14.5559 18.9281 14.5312 19.4085 14.5312C19.9186 14.5312 20.0117 14.5506 20.3861 14.735C20.8817 14.9789 21.2045 15.3177 21.4434 15.8447C21.7853 16.5987 22.3856 16.8311 22.9512 16.4284C23.3939 16.1132 23.4251 15.6467 23.0548 14.8796C22.7211 14.1884 22.0105 13.4562 21.3322 13.1047C20.4228 12.6334 19.3369 12.5029 18.3894 12.7512ZM28.9749 19.6561C30.0601 20.2918 30.4385 21.8868 29.8028 23.1461C29.4351 23.8746 28.685 24.4514 27.8885 24.6181C27.6714 24.6636 26.4816 24.6875 24.4354 24.6875H21.3134V23.75V22.8125H24.4143C27.4569 22.8125 27.5196 22.81 27.7507 22.6801C27.8803 22.6073 28.0458 22.4418 28.1186 22.3123C28.2423 22.0921 28.2509 21.9866 28.2509 20.6938V19.3108L28.4853 19.4087C28.6143 19.4625 28.8346 19.5739 28.9749 19.6561ZM7.14482 20.8386C7.03488 20.8882 6.80619 21.0765 6.63663 21.2571L6.32832 21.5854L5.80526 21.6216C5.17319 21.6654 4.92688 21.7928 4.74413 22.1704C4.51576 22.6421 4.73719 23.2087 5.23038 23.4147C5.52694 23.5386 6.29457 23.5219 6.74525 23.3816C7.42988 23.1685 8.08125 22.6401 8.34538 22.0835C8.69182 21.3534 7.87688 20.5082 7.14482 20.8386ZM19.4384 23.75V24.6875H18.4123H17.386L17.4536 24.4531C17.4907 24.3242 17.5236 23.9025 17.5266 23.516L17.5322 22.8132L18.4853 22.8129L19.4384 22.8125V23.75ZM1.29851 27.0664C1.03463 27.2057 0.813443 27.5744 0.813443 27.875C0.813443 28.337 1.28657 28.8125 1.74632 28.8125C2.22638 28.8125 2.68844 28.3527 2.68844 27.875C2.68844 27.5649 2.46738 27.2048 2.19007 27.0633C1.88213 26.9062 1.60007 26.9072 1.29851 27.0664ZM28.2509 28.7315C28.0876 28.7909 27.8063 29.0854 27.6819 29.3273C27.5441 29.5952 27.1775 29.8124 26.8628 29.8126C26.3574 29.8128 25.9384 30.2377 25.9384 30.75C25.9384 31.2941 26.3589 31.688 26.9384 31.6867C27.6189 31.6851 28.3214 31.3759 28.8449 30.8475C29.6388 30.0461 29.7452 29.2146 29.1044 28.8186C28.9003 28.6924 28.4771 28.6492 28.2509 28.7315Z" fill="#F6BB07"/>
</svg>
